<?xml version="1.0" standalone="no"?>
<!DOCTYPE svg PUBLIC "-//W3C//DTD SVG 20010904//EN"
 "http://www.w3.org/TR/2001/REC-SVG-20010904/DTD/svg10.dtd">
<svg version="1.0" xmlns="http://www.w3.org/2000/svg"
 width="512.000000pt" height="512.000000pt" viewBox="0 0 512.000000 512.000000"
 preserveAspectRatio="xMidYMid meet">
<metadata>
Created by potrace 1.11, written by Peter Selinger 2001-2013
</metadata>
<g transform="translate(0.000000,512.000000) scale(0.100000,-0.100000)"
fill="#000000" stroke="none">
<path d="M2493 4727 c-44 -23 -89 -49 -100 -58 -10 -9 -43 -29 -73 -46 -30
-16 -71 -39 -90 -50 -19 -12 -71 -41 -115 -66 -44 -25 -94 -57 -112 -72 -18
-14 -63 -41 -100 -60 -37 -18 -90 -54 -116 -79 l-49 -45 8 -91 c10 -128 -9
-145 -96 -90 -106 68 -180 80 -244 41 -18 -12 -39 -21 -45 -21 -7 0 -27 -11
-45 -25 -18 -14 -40 -25 -48 -25 -8 0 -27 -9 -41 -20 -31 -25 -235 -130 -252
-130 -6 0 -26 -11 -45 -25 -19 -14 -42 -25 -51 -25 -10 0 -24 -6 -31 -13 -7
-7 -67 -42 -132 -76 -66 -35 -128 -73 -138 -85 -16 -19 -17 -47 -18 -274 l0
-252 25 -12 25 -11 0 -216 0 -216 52 -30 c29 -16 77 -44 108 -62 30 -18 58
-32 63 -33 4 0 7 56 7 125 0 129 2 135 41 115 17 -10 19 -22 19 -130 0 -78 4
-120 11 -120 6 0 55 26 109 58 l99 57 -1 149 c0 81 4 152 9 157 9 9 71 -10
148 -47 29 -13 56 -24 61 -24 5 0 17 -9 27 -20 9 -11 26 -20 37 -20 11 0 28
-5 38 -11 25 -16 141 20 212 65 30 20 65 36 77 36 22 0 23 -3 25 -142 l3 -142
65 -34 c36 -18 73 -41 83 -49 9 -9 27 -21 39 -27 62 -32 44 -85 -45 -128 -32
-16 -60 -35 -64 -43 -3 -8 -8 -13 -12 -11 -3 2 -21 -8 -39 -22 -29 -24 -33
-34 -39 -94 -4 -43 -2 -72 5 -81 6 -7 9 -37 7 -67 -3 -50 -1 -55 29 -79 18
-14 72 -46 119 -71 101 -52 108 -49 106 40 -3 69 7 101 27 93 13 -5 15 -23 14
-92 -1 -47 -2 -90 -1 -94 1 -5 20 2 44 16 23 14 92 52 152 85 61 33 135 74
165 91 30 17 85 47 123 66 l67 35 2 118 c1 64 1 127 0 140 -1 18 5 22 26 22
29 0 55 30 46 53 -3 10 26 32 96 72 103 59 130 68 137 49 2 -6 -44 -38 -102
-70 -58 -32 -105 -62 -105 -66 0 -10 501 -309 520 -311 8 0 51 22 95 49 44 28
88 53 98 57 39 15 26 26 -158 132 -55 32 -120 70 -145 85 -25 15 -78 46 -118
70 -58 33 -71 44 -62 55 9 11 27 5 93 -32 45 -25 111 -63 146 -85 51 -32 68
-38 80 -30 9 6 37 24 64 38 26 15 47 31 47 36 0 4 5 8 11 8 6 0 39 21 73 46
l61 46 0 132 0 131 24 3 c14 2 30 -2 35 -10 6 -7 33 -23 60 -36 36 -17 51 -20
56 -11 6 9 16 8 40 -5 18 -9 35 -16 37 -16 1 0 3 61 3 135 0 138 3 148 38 126
11 -7 12 -33 7 -130 -7 -104 -5 -121 7 -121 9 0 111 53 229 118 118 65 242
133 277 152 94 50 92 57 91 -290 -1 -221 2 -285 12 -289 13 -4 239 107 251
124 4 6 5 183 3 395 -2 212 -4 422 -4 467 l-1 82 -75 36 c-41 19 -109 55 -151
80 -41 25 -78 45 -81 45 -3 0 -17 8 -31 19 -15 10 -56 33 -92 52 -36 18 -90
49 -120 69 -84 57 -130 85 -190 117 -30 17 -75 42 -101 56 l-45 27 -129 -66
c-71 -35 -135 -62 -142 -60 -11 5 -12 30 -7 123 7 140 0 166 -53 188 -20 9
-51 26 -68 39 -17 13 -48 31 -70 40 -21 9 -63 33 -94 54 -31 21 -76 46 -101
56 -25 10 -72 35 -105 55 -33 21 -104 61 -157 90 -54 29 -100 57 -104 62 -3 5
-14 9 -25 9 -10 0 -28 9 -39 20 -34 34 -101 26 -197 -23z m502 -818 c91 -54
176 -92 221 -97 38 -4 49 -1 72 20 43 38 55 46 114 72 33 15 60 21 68 16 9 -6
15 -48 19 -146 l6 -137 75 -45 c41 -24 97 -56 125 -71 68 -36 68 -53 3 -95
-29 -19 -64 -44 -78 -55 -14 -11 -30 -21 -37 -21 -6 0 -20 -10 -30 -23 -10
-13 -30 -31 -45 -41 -24 -16 -28 -25 -28 -65 0 -102 -12 -181 -28 -181 -8 0
-56 20 -106 44 -69 33 -101 43 -131 41 -46 -3 -200 -76 -225 -108 -11 -13 -23
-18 -33 -14 -15 6 -17 26 -17 160 l0 154 -102 60 c-57 33 -113 66 -126 72 -21
11 -22 14 -9 34 8 12 60 43 118 69 l104 46 3 171 c1 94 6 171 10 171 4 -1 30
-14 57 -31z m-678 -19 c1 -14 5 -80 9 -147 l7 -122 36 -26 c21 -14 40 -25 43
-25 15 0 143 -82 143 -91 0 -7 -14 -19 -31 -28 -26 -14 -137 -79 -198 -115
-16 -10 -18 -25 -17 -154 2 -159 1 -161 -63 -117 -20 14 -40 25 -43 25 -3 0
-41 20 -84 45 l-77 44 -89 -45 c-48 -25 -103 -57 -121 -71 -19 -14 -37 -21
-42 -17 -5 5 -14 68 -21 139 -6 72 -16 136 -22 144 -6 7 -36 25 -67 38 -94 43
-100 46 -100 58 0 7 -13 15 -30 19 -23 4 -30 11 -30 29 0 19 10 28 43 43 23
10 60 31 81 46 21 16 45 28 53 28 8 0 32 9 53 20 l40 20 0 128 c0 78 4 132 11
139 20 20 96 -6 179 -61 30 -20 60 -36 66 -36 15 0 106 50 119 65 17 20 98 54
125 52 19 -2 26 -8 27 -27z"/>
<path d="M4225 3047 c-55 -29 -103 -56 -107 -62 -4 -5 -8 -77 -8 -160 l0 -150
28 -16 c15 -9 65 -39 111 -67 46 -29 90 -52 98 -52 10 0 13 37 13 183 0 230
-9 377 -24 376 -6 0 -56 -23 -111 -52z"/>
<path d="M801 2477 c-6 -8 -7 -18 -3 -22 4 -5 2 -5 -5 -1 -6 3 -14 2 -17 -3
-3 -5 -24 -19 -47 -30 -23 -12 -65 -37 -95 -56 l-53 -34 -1 -245 c0 -157 3
-247 10 -251 6 -4 10 -83 10 -215 0 -155 3 -212 13 -220 19 -17 797 -450 808
-450 6 0 9 48 7 122 l-3 122 -57 32 c-31 17 -94 52 -140 77 -45 25 -150 83
-233 129 l-150 83 -2 323 -3 322 25 0 25 0 0 -259 c0 -142 3 -272 6 -289 l6
-31 109 54 c59 30 113 64 119 75 7 12 10 121 10 302 -1 156 0 297 2 313 3 28
-1 32 -68 65 -39 19 -92 50 -118 68 -44 32 -48 33 -70 18 -21 -13 -26 -13 -42
-1 -24 18 -29 18 -43 2z"/>
<path d="M4260 2417 c-109 -80 -111 -93 -28 -137 35 -18 75 -41 89 -51 56 -39
72 -36 178 32 55 35 99 67 98 71 -1 3 -47 38 -101 77 -64 45 -109 71 -125 70
-15 0 -62 -26 -111 -62z"/>
<path d="M2640 2337 l0 -122 193 -109 c105 -60 226 -129 267 -152 41 -24 78
-40 83 -35 4 4 6 59 5 122 l-3 114 -235 137 c-129 76 -243 145 -253 153 -9 8
-26 15 -37 15 -19 0 -20 -7 -20 -123z"/>
<path d="M3352 2237 c-52 -29 -97 -59 -101 -67 -4 -8 -5 -68 -2 -132 l6 -117
103 56 102 56 2 94 c1 51 2 107 2 125 1 17 -3 33 -9 35 -5 1 -52 -21 -103 -50z"/>
<path d="M4111 2128 c1 -90 4 -221 8 -293 l6 -130 110 -63 110 -63 6 63 c4 35
7 167 8 294 l1 232 -110 61 c-61 34 -117 61 -125 61 -13 0 -15 -26 -14 -162z"/>
<path d="M4510 2234 c-47 -30 -91 -60 -98 -68 -10 -10 -13 -75 -12 -307 1
-162 2 -304 3 -317 2 -21 -23 -37 -208 -138 -115 -63 -249 -135 -297 -161
l-88 -48 0 -85 c0 -134 10 -149 75 -114 17 9 89 46 160 83 121 63 198 103 445
234 52 27 105 55 117 61 23 11 23 13 23 246 0 358 -11 670 -24 669 -6 0 -49
-25 -96 -55z"/>
<path d="M1320 2082 l-135 -77 -3 -129 c-1 -71 1 -133 5 -137 10 -10 508 262
508 278 0 18 -192 143 -218 143 -12 0 -83 -35 -157 -78z"/>
<path d="M3657 2092 c-53 -31 -96 -61 -94 -67 2 -5 33 -26 68 -46 296 -165
421 -230 427 -224 13 13 21 219 8 232 -22 23 -257 154 -284 158 -19 3 -54 -12
-125 -53z"/>
<path d="M2465 2077 l-110 -62 -3 -130 c-3 -151 0 -167 30 -184 13 -6 32 -17
43 -24 66 -40 154 -87 163 -87 9 0 12 74 12 275 0 213 -3 275 -12 275 -7 0
-62 -29 -123 -63z"/>
<path d="M2640 1870 c0 -242 2 -270 16 -270 9 0 61 27 116 60 54 33 103 60
109 60 6 0 8 56 7 148 l-3 147 -110 62 c-60 35 -116 63 -122 63 -10 0 -13 -61
-13 -270z"/>
<path d="M1685 1956 c-11 -7 -101 -55 -200 -106 -234 -121 -280 -150 -263
-166 7 -7 58 -38 113 -69 77 -43 104 -54 115 -46 8 6 69 40 135 77 66 37 128
73 138 82 14 13 17 33 17 129 0 102 -2 113 -18 113 -10 0 -26 -6 -37 -14z"/>
<path d="M3505 1846 l0 -125 100 -48 c55 -26 125 -62 157 -79 l56 -32 103 62
c56 33 104 67 106 73 3 7 -22 25 -55 42 -32 16 -138 73 -236 126 -98 53 -190
98 -204 101 l-27 5 0 -125z"/>
<path d="M1045 1611 c-60 -33 -110 -63 -109 -68 0 -4 119 -74 263 -154 l262
-147 94 62 c52 33 95 63 95 66 0 3 -28 22 -63 44 -34 21 -91 58 -127 81 -177
114 -261 165 -282 170 -16 3 -58 -14 -133 -54z"/>
<path d="M3843 1517 c-144 -78 -264 -147 -267 -154 -3 -7 39 -36 106 -71 l111
-59 146 84 c80 46 197 111 259 146 140 77 141 83 22 149 -47 25 -92 46 -100
46 -8 0 -133 -63 -277 -141z"/>
<path d="M2518 1455 c-53 -35 -99 -69 -102 -74 -4 -5 37 -35 91 -67 l96 -57
109 54 c112 55 144 78 120 87 -7 2 -18 9 -25 15 -29 28 -158 107 -174 107 -10
0 -62 -29 -115 -65z"/>
<path d="M2366 1273 c-8 -99 -10 -222 -3 -230 4 -3 7 -84 7 -179 0 -165 -1
-172 -21 -177 -14 -4 -102 41 -294 149 -150 85 -280 154 -289 154 -14 0 -15
-14 -10 -107 3 -60 8 -111 11 -116 2 -4 49 -37 104 -73 56 -37 105 -77 111
-89 6 -13 22 -29 37 -36 14 -8 41 -24 59 -36 18 -12 83 -48 145 -79 61 -31
134 -71 162 -89 57 -37 219 -115 238 -115 12 0 124 55 182 89 69 41 180 100
330 176 259 132 270 139 273 167 2 19 14 30 53 46 27 12 49 28 49 36 0 7 2 29
5 47 4 26 3 30 -4 14 -7 -15 -10 1 -12 60 -1 44 -2 86 -2 93 1 6 -2 12 -4 12
-7 0 -224 -115 -423 -222 -80 -44 -154 -80 -165 -81 -20 -2 -20 3 -20 320 0
176 -2 324 -5 327 -3 2 -51 -18 -106 -47 -144 -75 -140 -72 -126 -90 10 -11
11 -77 6 -283 -3 -148 -5 -325 -4 -393 2 -126 -4 -147 -37 -134 -11 4 -13 82
-13 417 l0 411 -28 16 c-139 84 -182 109 -190 109 -5 0 -12 -30 -16 -67z"/>
<path d="M1598 1267 c-48 -29 -90 -56 -95 -60 -8 -9 -31 -229 -25 -246 4 -13
42 6 150 76 l83 55 -3 110 c-2 63 -7 112 -13 114 -5 1 -49 -21 -97 -49z"/>
<path d="M3533 1303 c-9 -3 -13 -37 -13 -119 l0 -113 33 -17 c17 -9 68 -39
113 -65 45 -27 86 -49 93 -49 16 0 15 237 -1 254 -11 11 -206 117 -211 115 -1
0 -8 -3 -14 -6z"/>
<path d="M1933 1120 c-51 -33 -93 -63 -93 -68 0 -11 458 -284 468 -278 4 2 5
59 2 126 l-5 123 -101 61 c-55 34 -111 69 -124 79 -14 9 -31 17 -40 17 -8 0
-57 -27 -107 -60z"/>
<path d="M3087 1102 l-147 -77 2 -130 c3 -125 4 -130 25 -133 13 -2 48 14 85
38 35 22 138 77 230 122 142 69 190 100 176 113 -17 15 -211 145 -216 144 -4
0 -73 -35 -155 -77z"/>
</g>
</svg>
